<svg version="1.2" xmlns="http://www.w3.org/2000/svg" viewBox="0 0 230 229" width="230" height="229"><style></style><path  d="m181.4 33.7c-19-10.4-42-16.5-66.7-16.5-24.7 0-47.6 6.1-66.6 16.5 17-20.8 40.6-33.7 66.6-33.7 26.1 0 49.7 12.9 66.7 33.7z"/><path  d="m48.1 195.1c19 10.5 41.9 16.6 66.7 16.6 24.6 0 47.6-6.1 66.6-16.6-17 20.9-40.6 33.8-66.6 33.8-26.1 0-49.7-12.9-66.7-33.8z"/><path  d="m33.7 47.8c-10.4 19-16.5 41.9-16.5 66.6 0 24.7 6.1 47.7 16.5 66.7-20.8-17-33.7-40.6-33.7-66.7 0-26 12.9-49.6 33.7-66.6z"/><path  d="m195.8 181.1c10.4-19 16.5-42 16.5-66.7 0-24.7-6.1-47.6-16.5-66.6 20.8 17 33.7 40.6 33.7 66.6 0 26.1-12.9 49.7-33.8 66.7z"/></svg>